# xmcd CD database file
#
# Track frame offsets:
#	150
#	44415
#	111660
#
# Disc length: 2469 seconds
#
# Revision: 0
# Processed by: cddbd v1.5.1PL0 Copyright (c) Steve Scherf et al.
# Submitted via: CDex 1.51
#
DISCID=2709a303
DTITLE=Miles Davis - More Live At Fillmore
DYEAR=1900
DGENRE=Jazz
TTITLE0=Directions
TTITLE1=Miles Runs The Voodoo Down
TTITLE2=It's About That Time - Theme
EXTD=
EXTT0=
EXTT1=
EXTT2=
PLAYORDER=
